<?xml version="1.0" encoding="UTF-8" standalone="no"?>
<!DOCTYPE svg PUBLIC "-//W3C//DTD SVG 1.1//EN" "http://www.w3.org/Graphics/SVG/1.1/DTD/svg11.dtd">
<svg width="100%" height="100%" viewBox="0 0 74 86" version="1.1" xmlns="http://www.w3.org/2000/svg" xmlns:xlink="http://www.w3.org/1999/xlink" xml:space="preserve" xmlns:serif="http://www.serif.com/" style="fill-rule:evenodd;clip-rule:evenodd;stroke-linejoin:round;stroke-miterlimit:2;">
    <g transform="matrix(1,0,0,1,-3139.968504,-834.968504)">
        <path d="M3176.5,840C3193.885,840 3208,854.115 3208,871.5C3208,888.885 3187,915 3176.5,915C3166,915 3145,888.885 3145,871.5C3145,854.115 3159.115,840 3176.5,840ZM3176.5,857.5C3168.221,857.5 3161.5,864.221 3161.5,872.5C3161.5,880.779 3168.221,887.5 3176.5,887.5C3184.779,887.5 3191.5,880.779 3191.5,872.5C3191.5,864.221 3184.779,857.5 3176.5,857.5Z" style="fill:white;"/>
        <path d="M3176.5,834.969C3196.662,834.969 3213.031,851.338 3213.031,871.5C3213.031,884.843 3202.013,903.016 3191.295,912.634C3185.95,917.432 3180.519,920.031 3176.5,920.031C3172.481,920.031 3167.05,917.432 3161.705,912.634C3150.987,903.016 3139.969,884.843 3139.969,871.5C3139.969,851.338 3156.338,834.969 3176.5,834.969ZM3176.5,840C3159.115,840 3145,854.115 3145,871.5C3145,888.885 3166,915 3176.5,915C3187,915 3208,888.885 3208,871.5C3208,854.115 3193.885,840 3176.5,840ZM3176.5,857.5C3184.779,857.5 3191.5,864.221 3191.5,872.5C3191.5,880.779 3184.779,887.5 3176.5,887.5C3168.221,887.5 3161.5,880.779 3161.5,872.5C3161.5,864.221 3168.221,857.5 3176.5,857.5ZM3176.5,862.531C3170.998,862.531 3166.531,866.998 3166.531,872.5C3166.531,878.002 3170.998,882.469 3176.5,882.469C3182.002,882.469 3186.469,878.002 3186.469,872.5C3186.469,866.998 3182.002,862.531 3176.5,862.531Z" style="fill:rgb(135,135,135);"/>
    </g>
</svg>
